<?xml version="1.0" encoding="UTF-8"?>
<!DOCTYPE svg PUBLIC "-//W3C//DTD SVG 1.1//EN" "http://www.w3.org/Graphics/SVG/1.1/DTD/svg11.dtd">
<svg xmlns="http://www.w3.org/2000/svg" version="1.1" width="512px" height="512px" style="shape-rendering:geometricPrecision; text-rendering:geometricPrecision; image-rendering:optimizeQuality; fill-rule:evenodd; clip-rule:evenodd" xmlns:xlink="http://www.w3.org/1999/xlink">
<g><path style="opacity:0.97" fill="#fe972e" d="M 232.5,-0.5 C 247.833,-0.5 263.167,-0.5 278.5,-0.5C 301.525,1.83944 323.859,7.17278 345.5,15.5C 286.331,15.8324 227.331,15.499 168.5,14.5C 189.196,6.69473 210.53,1.69473 232.5,-0.5 Z"/></g>
<g><path style="opacity:0.994" fill="#fd9230" d="M 168.5,14.5 C 227.331,15.499 286.331,15.8324 345.5,15.5C 361.988,21.0772 377.321,28.7439 391.5,38.5C 300.998,38.8327 210.665,38.4994 120.5,37.5C 135.406,27.7149 151.406,20.0482 168.5,14.5 Z"/></g>
<g><path style="opacity:0.998" fill="#fc9031" d="M 120.5,37.5 C 210.665,38.4994 300.998,38.8327 391.5,38.5C 395.025,39.7589 398.025,41.7589 400.5,44.5C 303.833,44.5 207.167,44.5 110.5,44.5C 113.446,41.6869 116.779,39.3535 120.5,37.5 Z"/></g>
<g><path style="opacity:0.997" fill="#fb8c33" d="M 110.5,44.5 C 207.167,44.5 303.833,44.5 400.5,44.5C 413.294,51.9514 424.627,61.2848 434.5,72.5C 315.332,72.8329 196.332,72.4995 77.5,71.5C 87.2051,60.8279 98.2051,51.8279 110.5,44.5 Z"/></g>
<g><path style="opacity:0.998" fill="#fa8735" d="M 77.5,71.5 C 196.332,72.4995 315.332,72.8329 434.5,72.5C 439.833,77.1667 444.833,82.1667 449.5,87.5C 320.167,87.5 190.833,87.5 61.5,87.5C 66.5,81.8333 71.8333,76.5 77.5,71.5 Z"/></g>
<g><path style="opacity:0.998" fill="#f88437" d="M 61.5,87.5 C 190.833,87.5 320.167,87.5 449.5,87.5C 457.269,96.2676 464.269,105.601 470.5,115.5C 437.907,116.492 405.24,116.826 372.5,116.5C 377.676,111.158 382.676,105.658 387.5,100C 387.241,98.7387 386.574,97.7387 385.5,97C 366.375,89.8061 348.042,91.3061 330.5,101.5C 280.5,100.167 230.5,100.167 180.5,101.5C 164.227,91.1782 146.893,89.0115 128.5,95C 125.297,96.1719 123.797,98.3386 124,101.5C 129.037,106.369 133.87,111.369 138.5,116.5C 105.833,116.5 73.1667,116.5 40.5,116.5C 46.3138,106.013 53.3138,96.346 61.5,87.5 Z"/></g>
<g><path style="opacity:1" fill="#fefcfc" d="M 180.5,101.5 C 189.38,109.045 196.38,118.045 201.5,128.5C 203.627,136.012 204.627,143.679 204.5,151.5C 203.445,154.073 203.278,156.739 204,159.5C 209.369,165.036 214.869,170.37 220.5,175.5C 230.479,185.813 240.479,196.146 250.5,206.5C 246.811,210.52 243.145,214.52 239.5,218.5C 238.5,219.833 237.5,219.833 236.5,218.5C 229.703,211.202 222.703,204.035 215.5,197C 206.192,192.566 199.358,195.066 195,204.5C 193.973,210.929 196.14,215.929 201.5,219.5C 207.297,225.798 213.297,231.965 219.5,238C 216.629,240.703 213.962,243.536 211.5,246.5C 209.852,247.81 208.186,249.143 206.5,250.5C 204.814,249.143 203.148,247.81 201.5,246.5C 194.167,238.5 186.5,230.833 178.5,223.5C 172.036,216.535 165.369,209.702 158.5,203C 145.974,204.729 133.974,202.896 122.5,197.5C 118.234,194.355 113.901,191.188 109.5,188C 105.536,183.877 102.203,179.377 99.5,174.5C 96.4873,167.459 94.4873,160.126 93.5,152.5C 93.1139,144.387 93.7805,136.387 95.5,128.5C 99.1143,125.687 102.448,126.021 105.5,129.5C 113.298,137.798 121.298,145.965 129.5,154C 136.465,153.255 143.465,152.421 150.5,151.5C 151.417,144.508 151.917,137.508 152,130.5C 151.292,129.619 150.458,128.953 149.5,128.5C 145.805,124.474 142.138,120.474 138.5,116.5C 133.87,111.369 129.037,106.369 124,101.5C 123.797,98.3386 125.297,96.1719 128.5,95C 146.893,89.0115 164.227,91.1782 180.5,101.5 Z"/></g>
<g><path style="opacity:1" fill="#fdfcfc" d="M 372.5,116.5 C 368.167,120.167 364.167,124.167 360.5,128.5C 358.522,129.317 357.522,130.817 357.5,133C 358.989,139.434 359.989,145.934 360.5,152.5C 367.538,152.96 374.538,153.46 381.5,154C 389.702,145.965 397.702,137.798 405.5,129.5C 408.552,126.021 411.886,125.687 415.5,128.5C 417.219,136.387 417.886,144.387 417.5,152.5C 416.513,160.126 414.513,167.459 411.5,174.5C 408.934,178.609 406.101,182.609 403,186.5C 398.368,190.551 393.534,194.218 388.5,197.5C 377.291,202.535 365.624,204.202 353.5,202.5C 346.146,209.188 339.146,216.188 332.5,223.5C 324.833,230.5 317.5,237.833 310.5,245.5C 307.5,247.833 304.833,250.5 302.5,253.5C 296.5,258.833 290.833,264.5 285.5,270.5C 269.167,286.167 253.167,302.167 237.5,318.5C 229.833,325.5 222.5,332.833 215.5,340.5C 211.536,343.963 207.702,347.63 204,351.5C 204.11,355.129 204.276,358.796 204.5,362.5C 204.065,370.008 202.731,377.341 200.5,384.5C 196.541,393.413 190.874,401.08 183.5,407.5C 160.129,423.41 136.796,423.41 113.5,407.5C 105.968,401.289 100.302,393.622 96.5,384.5C 93.9622,377.408 92.6288,370.074 92.5,362.5C 92.8678,355.29 94.2011,348.29 96.5,341.5C 101.004,332.662 107.004,324.996 114.5,318.5C 127.785,309.346 142.452,305.846 158.5,308C 163.703,302.965 168.703,297.798 173.5,292.5C 180.833,285.833 187.833,278.833 194.5,271.5C 200.5,266.167 206.167,260.5 211.5,254.5C 214.167,252.5 216.5,250.167 218.5,247.5C 228.5,238.167 238.167,228.5 247.5,218.5C 262.167,204.5 276.5,190.167 290.5,175.5C 296.131,170.37 301.631,165.036 307,159.5C 307.722,156.739 307.555,154.073 306.5,151.5C 306.028,143.614 307.028,135.948 309.5,128.5C 313.919,117.424 320.919,108.424 330.5,101.5C 348.042,91.3061 366.375,89.8061 385.5,97C 386.574,97.7387 387.241,98.7387 387.5,100C 382.676,105.658 377.676,111.158 372.5,116.5 Z"/></g>
<g><path style="opacity:1" fill="#f78138" d="M 330.5,101.5 C 320.919,108.424 313.919,117.424 309.5,128.5C 273.5,128.5 237.5,128.5 201.5,128.5C 196.38,118.045 189.38,109.045 180.5,101.5C 230.5,100.167 280.5,100.167 330.5,101.5 Z"/></g>
<g><path style="opacity:0.996" fill="#f77e39" d="M 470.5,115.5 C 473.417,119.666 476.084,123.999 478.5,128.5C 457.5,128.5 436.5,128.5 415.5,128.5C 411.886,125.687 408.552,126.021 405.5,129.5C 390.676,128.504 375.676,128.171 360.5,128.5C 364.167,124.167 368.167,120.167 372.5,116.5C 405.24,116.826 437.907,116.492 470.5,115.5 Z"/></g>
<g><path style="opacity:0.997" fill="#f77e39" d="M 40.5,116.5 C 73.1667,116.5 105.833,116.5 138.5,116.5C 142.138,120.474 145.805,124.474 149.5,128.5C 134.657,128.171 119.99,128.504 105.5,129.5C 102.448,126.021 99.1143,125.687 95.5,128.5C 74.6599,128.831 53.9933,128.497 33.5,127.5C 35.0875,123.317 37.4208,119.65 40.5,116.5 Z"/></g>
<g><path style="opacity:0.995" fill="#f5793b" d="M 33.5,127.5 C 53.9933,128.497 74.6599,128.831 95.5,128.5C 93.7805,136.387 93.1139,144.387 93.5,152.5C 69.9082,151.511 46.2415,151.177 22.5,151.5C 22.5,150.5 22.5,149.5 22.5,148.5C 25.4056,141.019 29.0723,134.019 33.5,127.5 Z"/></g>
<g><path style="opacity:1" fill="#f67b3d" d="M 149.5,128.5 C 150.458,128.953 151.292,129.619 152,130.5C 151.917,137.508 151.417,144.508 150.5,151.5C 143.465,152.421 136.465,153.255 129.5,154C 121.298,145.965 113.298,137.798 105.5,129.5C 119.99,128.504 134.657,128.171 149.5,128.5 Z"/></g>
<g><path style="opacity:1" fill="#f5793b" d="M 201.5,128.5 C 237.5,128.5 273.5,128.5 309.5,128.5C 307.028,135.948 306.028,143.614 306.5,151.5C 272.5,151.5 238.5,151.5 204.5,151.5C 204.627,143.679 203.627,136.012 201.5,128.5 Z"/></g>
<g><path style="opacity:1" fill="#f67a3c" d="M 360.5,128.5 C 375.676,128.171 390.676,128.504 405.5,129.5C 397.702,137.798 389.702,145.965 381.5,154C 374.538,153.46 367.538,152.96 360.5,152.5C 359.989,145.934 358.989,139.434 357.5,133C 357.522,130.817 358.522,129.317 360.5,128.5 Z"/></g>
<g><path style="opacity:0.995" fill="#f5793b" d="M 415.5,128.5 C 436.5,128.5 457.5,128.5 478.5,128.5C 482.966,135.767 486.633,143.433 489.5,151.5C 465.425,151.177 441.425,151.51 417.5,152.5C 417.886,144.387 417.219,136.387 415.5,128.5 Z"/></g>
<g><path style="opacity:0.997" fill="#f4733e" d="M 22.5,148.5 C 22.5,149.5 22.5,150.5 22.5,151.5C 46.2415,151.177 69.9082,151.511 93.5,152.5C 94.4873,160.126 96.4873,167.459 99.5,174.5C 70.5,174.5 41.5,174.5 12.5,174.5C 14.8703,165.378 18.2036,156.711 22.5,148.5 Z"/></g>
<g><path style="opacity:1" fill="#f4733e" d="M 204.5,151.5 C 238.5,151.5 272.5,151.5 306.5,151.5C 307.555,154.073 307.722,156.739 307,159.5C 301.631,165.036 296.131,170.37 290.5,175.5C 267.167,174.167 243.833,174.167 220.5,175.5C 214.869,170.37 209.369,165.036 204,159.5C 203.278,156.739 203.445,154.073 204.5,151.5 Z"/></g>
<g><path style="opacity:0.997" fill="#f4733e" d="M 489.5,151.5 C 493.462,158.708 496.462,166.375 498.5,174.5C 469.5,174.5 440.5,174.5 411.5,174.5C 414.513,167.459 416.513,160.126 417.5,152.5C 441.425,151.51 465.425,151.177 489.5,151.5 Z"/></g>
<g><path style="opacity:0.997" fill="#f26d41" d="M 12.5,174.5 C 41.5,174.5 70.5,174.5 99.5,174.5C 102.203,179.377 105.536,183.877 109.5,188C 113.901,191.188 118.234,194.355 122.5,197.5C 83.4274,197.173 44.4274,197.506 5.5,198.5C 7.05861,190.169 9.39194,182.169 12.5,174.5 Z"/></g>
<g><path style="opacity:1" fill="#f26d41" d="M 290.5,175.5 C 276.5,190.167 262.167,204.5 247.5,218.5C 244.833,218.5 242.167,218.5 239.5,218.5C 243.145,214.52 246.811,210.52 250.5,206.5C 240.479,196.146 230.479,185.813 220.5,175.5C 243.833,174.167 267.167,174.167 290.5,175.5 Z"/></g>
<g><path style="opacity:0.997" fill="#f26d41" d="M 411.5,174.5 C 440.5,174.5 469.5,174.5 498.5,174.5C 501.405,181.891 503.739,189.557 505.5,197.5C 466.5,197.5 427.5,197.5 388.5,197.5C 393.534,194.218 398.368,190.551 403,186.5C 406.101,182.609 408.934,178.609 411.5,174.5 Z"/></g>
<g><path style="opacity:0.998" fill="#f06643" d="M 122.5,197.5 C 133.974,202.896 145.974,204.729 158.5,203C 165.369,209.702 172.036,216.535 178.5,223.5C 119.331,223.832 60.331,223.499 1.5,222.5C 1.9737,214.324 3.30703,206.324 5.5,198.5C 44.4274,197.506 83.4274,197.173 122.5,197.5 Z"/></g>
<g><path style="opacity:1" fill="#f16b47" d="M 236.5,218.5 C 233.615,218.194 230.948,218.527 228.5,219.5C 223.035,214.536 217.702,209.37 212.5,204C 203.667,200.833 200.833,203.667 204,212.5C 206.04,214.37 207.873,216.37 209.5,218.5C 206.615,218.194 203.948,218.527 201.5,219.5C 196.14,215.929 193.973,210.929 195,204.5C 199.358,195.066 206.192,192.566 215.5,197C 222.703,204.035 229.703,211.202 236.5,218.5 Z"/></g>
<g><path style="opacity:1" fill="#f06848" d="M 281.5,247.5 C 279.052,246.527 276.385,246.194 273.5,246.5C 284.465,235.035 295.631,223.702 307,212.5C 310.154,203.816 307.32,200.983 298.5,204C 283.965,218.702 269.299,233.202 254.5,247.5C 252.052,246.527 249.385,246.194 246.5,246.5C 262.632,229.868 278.965,213.368 295.5,197C 306.426,192.463 313.426,195.963 316.5,207.5C 316.308,209.577 315.808,211.577 315,213.5C 304.328,225.339 293.161,236.672 281.5,247.5 Z"/></g>
<g><path style="opacity:0.998" fill="#f06743" d="M 388.5,197.5 C 427.5,197.5 466.5,197.5 505.5,197.5C 507.698,206.024 509.032,214.691 509.5,223.5C 450.5,223.5 391.5,223.5 332.5,223.5C 339.146,216.188 346.146,209.188 353.5,202.5C 365.624,204.202 377.291,202.535 388.5,197.5 Z"/></g>
<g><path style="opacity:1" fill="#fdf9f8" d="M 228.5,219.5 C 229.81,221.148 231.143,222.814 232.5,224.5C 230.167,227.5 227.5,230.167 224.5,232.5C 219.48,227.812 214.48,223.145 209.5,218.5C 207.873,216.37 206.04,214.37 204,212.5C 200.833,203.667 203.667,200.833 212.5,204C 217.702,209.37 223.035,214.536 228.5,219.5 Z"/></g>
<g><path style="opacity:1" fill="#fdf9f8" d="M 273.5,246.5 C 258.167,261.167 243.167,276.167 228.5,291.5C 222.035,297.464 215.702,303.631 209.5,310C 201.333,312.5 198.5,309.667 201,301.5C 204.038,298.631 206.871,295.631 209.5,292.5C 224.833,277.833 239.833,262.833 254.5,247.5C 269.299,233.202 283.965,218.702 298.5,204C 307.32,200.983 310.154,203.816 307,212.5C 295.631,223.702 284.465,235.035 273.5,246.5 Z"/></g>
<g><path style="opacity:0.998" fill="#ee6046" d="M 1.5,222.5 C 60.331,223.499 119.331,223.832 178.5,223.5C 186.5,230.833 194.167,238.5 201.5,246.5C 134.167,246.5 66.8333,246.5 -0.5,246.5C -0.5,241.833 -0.5,237.167 -0.5,232.5C 0.166667,229.167 0.833333,225.833 1.5,222.5 Z"/></g>
<g><path style="opacity:1" fill="#ef654a" d="M 209.5,218.5 C 214.48,223.145 219.48,227.812 224.5,232.5C 227.5,230.167 230.167,227.5 232.5,224.5C 231.143,222.814 229.81,221.148 228.5,219.5C 230.948,218.527 233.615,218.194 236.5,218.5C 237.5,219.833 238.5,219.833 239.5,218.5C 242.167,218.5 244.833,218.5 247.5,218.5C 238.167,228.5 228.5,238.167 218.5,247.5C 216.393,246.532 214.059,246.198 211.5,246.5C 213.962,243.536 216.629,240.703 219.5,238C 213.297,231.965 207.297,225.798 201.5,219.5C 203.948,218.527 206.615,218.194 209.5,218.5 Z"/></g>
<g><path style="opacity:0.998" fill="#ee6046" d="M 332.5,223.5 C 391.5,223.5 450.5,223.5 509.5,223.5C 510.167,226.5 510.833,229.5 511.5,232.5C 511.5,237.167 511.5,241.833 511.5,246.5C 444.331,246.832 377.331,246.499 310.5,245.5C 317.5,237.833 324.833,230.5 332.5,223.5 Z"/></g>
<g><path style="opacity:1" fill="#ee5c48" d="M -0.5,246.5 C 66.8333,246.5 134.167,246.5 201.5,246.5C 203.148,247.81 204.814,249.143 206.5,250.5C 208.186,249.143 209.852,247.81 211.5,246.5C 214.059,246.198 216.393,246.532 218.5,247.5C 216.5,250.167 214.167,252.5 211.5,254.5C 140.833,254.5 70.1667,254.5 -0.5,254.5C -0.5,251.833 -0.5,249.167 -0.5,246.5 Z"/></g>
<g><path style="opacity:1" fill="#ee5c48" d="M 310.5,245.5 C 377.331,246.499 444.331,246.832 511.5,246.5C 511.5,249.167 511.5,251.833 511.5,254.5C 441.665,254.833 371.998,254.499 302.5,253.5C 304.833,250.5 307.5,247.833 310.5,245.5 Z"/></g>
<g><path style="opacity:1" fill="#ec5949" d="M -0.5,254.5 C 70.1667,254.5 140.833,254.5 211.5,254.5C 206.167,260.5 200.5,266.167 194.5,271.5C 129.598,270.169 64.5976,270.169 -0.5,271.5C -0.5,265.833 -0.5,260.167 -0.5,254.5 Z"/></g>
<g><path style="opacity:1" fill="#ec5a4c" d="M 246.5,246.5 C 249.385,246.194 252.052,246.527 254.5,247.5C 239.833,262.833 224.833,277.833 209.5,292.5C 207.052,291.527 204.385,291.194 201.5,291.5C 216.167,276.167 231.167,261.167 246.5,246.5 Z"/></g>
<g><path style="opacity:1" fill="#ec5a4c" d="M 273.5,246.5 C 276.385,246.194 279.052,246.527 281.5,247.5C 266.833,262.833 251.833,277.833 236.5,292.5C 234.052,291.527 231.385,291.194 228.5,291.5C 243.167,276.167 258.167,261.167 273.5,246.5 Z"/></g>
<g><path style="opacity:1" fill="#ec5949" d="M 302.5,253.5 C 371.998,254.499 441.665,254.833 511.5,254.5C 511.5,259.833 511.5,265.167 511.5,270.5C 446.331,270.168 381.331,270.501 316.5,271.5C 312.52,267.855 308.52,264.189 304.5,260.5C 300.48,264.189 296.48,267.855 292.5,271.5C 290.393,270.532 288.059,270.198 285.5,270.5C 290.833,264.5 296.5,258.833 302.5,253.5 Z"/></g>
<g><path style="opacity:1" fill="#fdfcfc" d="M 316.5,271.5 C 323.167,278.833 330.167,285.833 337.5,292.5C 342.479,298.146 347.812,303.479 353.5,308.5C 369.051,306.638 383.384,309.971 396.5,318.5C 403.607,324.711 409.274,332.044 413.5,340.5C 417.077,349.799 418.41,359.466 417.5,369.5C 417.106,374.291 416.106,378.958 414.5,383.5C 410.774,392.981 405.107,400.981 397.5,407.5C 374.111,423.412 350.777,423.412 327.5,407.5C 319.939,401.267 314.273,393.601 310.5,384.5C 307.875,377.42 306.542,370.086 306.5,362.5C 306.724,358.796 306.89,355.129 307,351.5C 303.298,347.63 299.464,343.963 295.5,340.5C 288.5,332.833 281.167,325.5 273.5,318.5C 269.188,313.854 264.855,309.187 260.5,304.5C 264.485,300.015 268.651,295.682 273,291.5C 281.863,300.697 291.03,309.531 300.5,318C 313.667,319.5 319.5,313.667 318,300.5C 312.032,293.531 305.699,286.864 299,280.5C 296.59,277.603 294.423,274.603 292.5,271.5C 296.48,267.855 300.48,264.189 304.5,260.5C 308.52,264.189 312.52,267.855 316.5,271.5 Z"/></g>
<g><path style="opacity:0.999" fill="#eb544b" d="M 194.5,271.5 C 187.833,278.833 180.833,285.833 173.5,292.5C 116.336,291.501 59.0024,291.168 1.5,291.5C 1.11561,286.99 0.44894,282.657 -0.5,278.5C -0.5,276.167 -0.5,273.833 -0.5,271.5C 64.5976,270.169 129.598,270.169 194.5,271.5 Z"/></g>
<g><path style="opacity:0.998" fill="#eb544b" d="M 511.5,270.5 C 511.5,273.167 511.5,275.833 511.5,278.5C 510.551,282.657 509.884,286.99 509.5,291.5C 451.998,291.168 394.664,291.501 337.5,292.5C 330.167,285.833 323.167,278.833 316.5,271.5C 381.331,270.501 446.331,270.168 511.5,270.5 Z"/></g>
<g><path style="opacity:0.997" fill="#e94e4e" d="M 1.5,291.5 C 59.0024,291.168 116.336,291.501 173.5,292.5C 168.703,297.798 163.703,302.965 158.5,308C 142.452,305.846 127.785,309.346 114.5,318.5C 78.2787,319.15 42.2787,318.483 6.5,316.5C 4.19812,308.324 2.53145,299.991 1.5,291.5 Z"/></g>
<g><path style="opacity:1" fill="#ea5151" d="M 201.5,291.5 C 204.385,291.194 207.052,291.527 209.5,292.5C 206.871,295.631 204.038,298.631 201,301.5C 198.5,309.667 201.333,312.5 209.5,310C 215.702,303.631 222.035,297.464 228.5,291.5C 231.385,291.194 234.052,291.527 236.5,292.5C 229.036,300.465 221.369,308.298 213.5,316C 204.254,320.99 197.42,318.824 193,309.5C 191.752,301.66 194.585,295.66 201.5,291.5 Z"/></g>
<g><path style="opacity:1" fill="#ea5251" d="M 285.5,270.5 C 288.059,270.198 290.393,270.532 292.5,271.5C 294.423,274.603 296.59,277.603 299,280.5C 305.699,286.864 312.032,293.531 318,300.5C 319.5,313.667 313.667,319.5 300.5,318C 291.03,309.531 281.863,300.697 273,291.5C 268.651,295.682 264.485,300.015 260.5,304.5C 264.855,309.187 269.188,313.854 273.5,318.5C 261.5,318.5 249.5,318.5 237.5,318.5C 253.167,302.167 269.167,286.167 285.5,270.5 Z"/></g>
<g><path style="opacity:1" fill="#fdf7f7" d="M 285.5,278.5 C 294.099,285.595 302.265,293.262 310,301.5C 312.335,305.155 311.835,308.321 308.5,311C 306.029,311.706 303.695,311.373 301.5,310C 293.603,302.192 285.936,294.192 278.5,286C 281.039,283.63 283.372,281.13 285.5,278.5 Z"/></g>
<g><path style="opacity:0.997" fill="#e94e4e" d="M 509.5,291.5 C 508.374,301.14 506.374,310.473 503.5,319.5C 468.004,318.502 432.337,318.168 396.5,318.5C 383.384,309.971 369.051,306.638 353.5,308.5C 347.812,303.479 342.479,298.146 337.5,292.5C 394.664,291.501 451.998,291.168 509.5,291.5 Z"/></g>
<g><path style="opacity:0.998" fill="#e84751" d="M 6.5,316.5 C 42.2787,318.483 78.2787,319.15 114.5,318.5C 107.004,324.996 101.004,332.662 96.5,341.5C 68.931,340.172 41.2644,340.172 13.5,341.5C 10.6998,333.299 8.36642,324.966 6.5,316.5 Z"/></g>
<g><path style="opacity:0.998" fill="#e74751" d="M 396.5,318.5 C 432.337,318.168 468.004,318.502 503.5,319.5C 502.112,326.998 500.112,334.332 497.5,341.5C 469.574,340.509 441.574,340.176 413.5,340.5C 409.274,332.044 403.607,324.711 396.5,318.5 Z"/></g>
<g><path style="opacity:1" fill="#e74651" d="M 237.5,318.5 C 249.5,318.5 261.5,318.5 273.5,318.5C 281.167,325.5 288.5,332.833 295.5,340.5C 268.833,340.5 242.167,340.5 215.5,340.5C 222.5,332.833 229.833,325.5 237.5,318.5 Z"/></g>
<g><path style="opacity:0.997" fill="#e64154" d="M 96.5,341.5 C 94.2011,348.29 92.8678,355.29 92.5,362.5C 69.1667,362.5 45.8333,362.5 22.5,362.5C 19.2612,355.68 16.2612,348.68 13.5,341.5C 41.2644,340.172 68.931,340.172 96.5,341.5 Z"/></g>
<g><path style="opacity:1" fill="#e64154" d="M 215.5,340.5 C 242.167,340.5 268.833,340.5 295.5,340.5C 299.464,343.963 303.298,347.63 307,351.5C 306.89,355.129 306.724,358.796 306.5,362.5C 272.5,362.5 238.5,362.5 204.5,362.5C 204.276,358.796 204.11,355.129 204,351.5C 207.702,347.63 211.536,343.963 215.5,340.5 Z"/></g>
<g><path style="opacity:0.996" fill="#e64254" d="M 413.5,340.5 C 441.574,340.176 469.574,340.509 497.5,341.5C 494.739,348.68 491.739,355.68 488.5,362.5C 465.167,362.5 441.833,362.5 418.5,362.5C 418.802,365.059 418.468,367.393 417.5,369.5C 418.41,359.466 417.077,349.799 413.5,340.5 Z"/></g>
<g><path style="opacity:0.995" fill="#e43b56" d="M 22.5,362.5 C 45.8333,362.5 69.1667,362.5 92.5,362.5C 92.6288,370.074 93.9622,377.408 96.5,384.5C 75.5,383.167 54.5,383.167 33.5,384.5C 29.3084,377.45 25.6417,370.117 22.5,362.5 Z"/></g>
<g><path style="opacity:1" fill="#e6445b" d="M 143.5,341.5 C 156.281,340.307 165.114,345.64 170,357.5C 171.384,376.586 162.551,385.753 143.5,385C 128.647,379.106 123.814,368.606 129,353.5C 132.541,347.78 137.374,343.78 143.5,341.5 Z"/></g>
<g><path style="opacity:1" fill="#fdfafb" d="M 144.5,349.5 C 159.59,349.082 165.09,356.082 161,370.5C 156.748,376.588 150.915,378.754 143.5,377C 137.76,374.205 134.76,369.538 134.5,363C 135.065,356.342 138.398,351.842 144.5,349.5 Z"/></g>
<g><path style="opacity:1" fill="#e43b56" d="M 204.5,362.5 C 238.5,362.5 272.5,362.5 306.5,362.5C 306.542,370.086 307.875,377.42 310.5,384.5C 273.833,383.167 237.167,383.167 200.5,384.5C 202.731,377.341 204.065,370.008 204.5,362.5 Z"/></g>
<g><path style="opacity:1" fill="#e6455b" d="M 357.5,341.5 C 374.745,341.251 383.579,349.584 384,366.5C 378.942,383.279 368.109,388.779 351.5,383C 337.275,370.735 336.942,358.068 350.5,345C 352.925,343.787 355.259,342.621 357.5,341.5 Z"/></g>
<g><path style="opacity:1" fill="#fdfafb" d="M 358.5,349.5 C 373.095,349.358 378.595,356.358 375,370.5C 370.748,376.588 364.915,378.754 357.5,377C 349.878,373.167 347.045,367.001 349,358.5C 350.871,354.006 354.038,351.006 358.5,349.5 Z"/></g>
<g><path style="opacity:0.995" fill="#e43b56" d="M 488.5,362.5 C 485.594,369.981 481.928,376.981 477.5,383.5C 456.5,383.5 435.5,383.5 414.5,383.5C 416.106,378.958 417.106,374.291 417.5,369.5C 418.468,367.393 418.802,365.059 418.5,362.5C 441.833,362.5 465.167,362.5 488.5,362.5 Z"/></g>
<g><path style="opacity:0.995" fill="#e33559" d="M 96.5,384.5 C 100.302,393.622 105.968,401.289 113.5,407.5C 92.1401,406.845 71.1401,407.511 50.5,409.5C 44.4752,401.464 38.8085,393.13 33.5,384.5C 54.5,383.167 75.5,383.167 96.5,384.5 Z"/></g>
<g><path style="opacity:1" fill="#e33559" d="M 310.5,384.5 C 314.273,393.601 319.939,401.267 327.5,407.5C 279.5,407.5 231.5,407.5 183.5,407.5C 190.874,401.08 196.541,393.413 200.5,384.5C 237.167,383.167 273.833,383.167 310.5,384.5 Z"/></g>
<g><path style="opacity:0.993" fill="#e33559" d="M 414.5,383.5 C 435.5,383.5 456.5,383.5 477.5,383.5C 473.156,392.196 467.823,400.196 461.5,407.5C 440.167,407.5 418.833,407.5 397.5,407.5C 405.107,400.981 410.774,392.981 414.5,383.5 Z"/></g>
<g><path style="opacity:0.998" fill="#e12e5c" d="M 113.5,407.5 C 136.796,423.41 160.129,423.41 183.5,407.5C 231.5,407.5 279.5,407.5 327.5,407.5C 350.777,423.412 374.111,423.412 397.5,407.5C 418.833,407.5 440.167,407.5 461.5,407.5C 455.622,416.717 448.622,425.05 440.5,432.5C 317.167,431.167 193.833,431.167 70.5,432.5C 63.1161,425.45 56.4494,417.783 50.5,409.5C 71.1401,407.511 92.1401,406.845 113.5,407.5 Z"/></g>
<g><path style="opacity:0.998" fill="#df285e" d="M 440.5,432.5 C 434.132,439.869 427.132,446.536 419.5,452.5C 365.004,451.167 310.171,450.5 255,450.5C 199.999,450.5 145.166,450.833 90.5,451.5C 83.2018,445.869 76.5352,439.536 70.5,432.5C 193.833,431.167 317.167,431.167 440.5,432.5 Z"/></g>
<g><path style="opacity:0.996" fill="#dd2260" d="M 419.5,452.5 C 411.007,460.324 401.674,466.99 391.5,472.5C 300.833,471.167 210.167,471.167 119.5,472.5C 108.989,466.654 99.3224,459.654 90.5,451.5C 145.166,450.833 199.999,450.5 255,450.5C 310.171,450.5 365.004,451.167 419.5,452.5 Z"/></g>
<g><path style="opacity:0.995" fill="#dc1b63" d="M 391.5,472.5 C 377.321,482.256 361.988,489.923 345.5,495.5C 285.998,495.168 226.664,495.501 167.5,496.5C 150.346,490.589 134.346,482.589 119.5,472.5C 210.167,471.167 300.833,471.167 391.5,472.5 Z"/></g>
<g><path style="opacity:0.988" fill="#da1665" d="M 167.5,496.5 C 226.664,495.501 285.998,495.168 345.5,495.5C 323.859,503.827 301.525,509.161 278.5,511.5C 263.167,511.5 247.833,511.5 232.5,511.5C 210.319,509.194 188.652,504.194 167.5,496.5 Z"/></g>
</svg>
